<svg width="494" height="88" viewBox="0 0 494 88" fill="none" xmlns="http://www.w3.org/2000/svg">
<path d="M73.75 87.5C97.9125 87.5 117.5 67.9125 117.5 43.75C117.5 19.5875 97.9125 0 73.75 0C49.5875 0 30 19.5875 30 43.75C30 67.9125 49.5875 87.5 73.75 87.5Z" fill="url(#paint0_linear_9_11478)"/>
<path d="M95.5831 25.7775C95.9725 23.2604 93.5794 21.2736 91.3412 22.2562L46.7651 41.8275C45.1601 42.5322 45.2775 44.9634 46.9421 45.4934L56.1347 48.4209C57.8894 48.9797 59.7891 48.6906 61.3212 47.6322L82.0469 33.3134C82.6719 32.8816 83.3531 33.7703 82.8191 34.3206L67.9003 49.7019C66.4531 51.1941 66.7403 53.7225 68.4812 54.8141L85.1844 65.2884C87.0578 66.4631 89.4678 65.2831 89.8181 63.0191L95.5831 25.7775Z" fill="white"/>
<path d="M166.272 52.8584H166.17C165.186 55.7979 163.258 57.2676 160.387 57.2676C158.555 57.2676 157.078 56.584 155.957 55.2168C154.836 53.8359 154.275 51.9834 154.275 49.6592C154.275 46.583 155.041 44.0264 156.572 41.9893C158.117 39.9521 160.147 38.9336 162.663 38.9336C163.62 38.9336 164.475 39.2002 165.227 39.7334C165.979 40.2529 166.464 40.8818 166.683 41.6201H166.744C166.785 41.2373 166.888 40.4512 167.052 39.2617H170.456C169.813 46.4805 169.492 50.1582 169.492 50.2949C169.492 53.002 170.196 54.3555 171.604 54.3555C172.89 54.3555 173.956 53.6035 174.804 52.0996C175.651 50.582 176.075 48.6201 176.075 46.2139C176.075 42.6592 174.927 39.7607 172.63 37.5186C170.347 35.2627 167.175 34.1348 163.114 34.1348C159.218 34.1348 155.991 35.4951 153.435 38.2158C150.878 40.9365 149.6 44.3408 149.6 48.4287C149.6 52.4619 150.83 55.7158 153.291 58.1904C155.752 60.665 159.067 61.9023 163.237 61.9023C166.519 61.9023 169.328 61.3418 171.666 60.2207V63.3789C169.273 64.3906 166.286 64.8965 162.704 64.8965C157.673 64.8965 153.619 63.3926 150.543 60.3848C147.467 57.377 145.929 53.4395 145.929 48.5723C145.929 43.5684 147.556 39.4189 150.81 36.124C154.063 32.8291 158.22 31.1816 163.278 31.1816C168.022 31.1816 171.946 32.5625 175.05 35.3242C178.167 38.0859 179.726 41.6885 179.726 46.1318C179.726 49.3857 178.878 52.0586 177.183 54.1504C175.501 56.2285 173.443 57.2676 171.01 57.2676C167.865 57.2676 166.286 55.7979 166.272 52.8584ZM163.012 41.8457C161.508 41.8457 160.291 42.584 159.361 44.0605C158.445 45.5371 157.987 47.376 157.987 49.5771C157.987 51.0537 158.295 52.2227 158.91 53.084C159.539 53.9316 160.373 54.3555 161.412 54.3555C162.916 54.3555 164.105 53.583 164.98 52.0381C165.855 50.4795 166.293 48.4219 166.293 45.8652C166.293 43.1855 165.199 41.8457 163.012 41.8457ZM188.359 35.5908C187.58 35.5908 186.91 35.3379 186.35 34.832C185.803 34.3262 185.529 33.6836 185.529 32.9043C185.529 32.125 185.803 31.4756 186.35 30.9561C186.91 30.4365 187.58 30.1768 188.359 30.1768C189.166 30.1768 189.85 30.4365 190.41 30.9561C190.971 31.4756 191.251 32.125 191.251 32.9043C191.251 33.6426 190.971 34.2783 190.41 34.8115C189.85 35.3311 189.166 35.5908 188.359 35.5908ZM190.718 61H185.96V40H190.718V61ZM215.04 40L206.919 61H201.771L194.04 40H199.208L203.863 54.6836C204.219 55.7637 204.438 56.707 204.52 57.5137H204.581C204.704 56.502 204.896 55.5859 205.155 54.7656L210.036 40H215.04ZM233.702 61H229.088V57.7188H229.006C227.557 60.2344 225.431 61.4922 222.628 61.4922C220.563 61.4922 218.943 60.9316 217.768 59.8105C216.605 58.6895 216.024 57.2061 216.024 55.3604C216.024 51.3955 218.308 49.085 222.874 48.4287L229.108 47.5469C229.108 44.5527 227.687 43.0557 224.843 43.0557C222.341 43.0557 220.085 43.917 218.075 45.6396V41.4766C220.29 40.1641 222.847 39.5078 225.745 39.5078C231.05 39.5078 233.702 42.1191 233.702 47.3418V61ZM229.108 50.6846L224.699 51.2998C223.332 51.4775 222.3 51.8125 221.603 52.3047C220.919 52.7832 220.577 53.6309 220.577 54.8477C220.577 55.7363 220.892 56.4678 221.521 57.042C222.163 57.6025 223.018 57.8828 224.084 57.8828C225.533 57.8828 226.729 57.377 227.673 56.3652C228.63 55.3398 229.108 54.0547 229.108 52.5098V50.6846ZM258.229 61H253.472V49.167C253.472 45.2432 252.084 43.2812 249.309 43.2812C247.859 43.2812 246.663 43.8281 245.72 44.9219C244.776 46.002 244.305 47.3691 244.305 49.0234V61H239.526V40H244.305V43.4863H244.387C245.959 40.834 248.229 39.5078 251.195 39.5078C253.479 39.5078 255.222 40.2529 256.425 41.7432C257.628 43.2197 258.229 45.3594 258.229 48.1621V61ZM268.894 57.9648H268.812V61H264.054V29.9102H268.812V43.6914H268.894C270.521 40.9023 272.899 39.5078 276.03 39.5078C278.683 39.5078 280.754 40.4512 282.244 42.3379C283.748 44.2109 284.5 46.7266 284.5 49.8848C284.5 53.3984 283.659 56.2148 281.978 58.334C280.296 60.4395 277.999 61.4922 275.087 61.4922C272.353 61.4922 270.288 60.3164 268.894 57.9648ZM268.771 49.6182V52.2227C268.771 53.7539 269.256 55.0527 270.227 56.1191C271.211 57.1855 272.455 57.7188 273.959 57.7188C275.723 57.7188 277.104 57.0352 278.102 55.668C279.113 54.2871 279.619 52.3662 279.619 49.9053C279.619 47.8408 279.147 46.2275 278.204 45.0654C277.274 43.8896 276.01 43.3018 274.41 43.3018C272.715 43.3018 271.348 43.9033 270.309 45.1064C269.283 46.3096 268.771 47.8135 268.771 49.6182ZM307.141 51.792H292.826C292.881 53.7334 293.476 55.2305 294.61 56.2832C295.759 57.3359 297.331 57.8623 299.327 57.8623C301.569 57.8623 303.627 57.1924 305.5 55.8525V59.6875C303.586 60.8906 301.057 61.4922 297.912 61.4922C294.822 61.4922 292.396 60.542 290.632 58.6416C288.882 56.7275 288.007 54.041 288.007 50.582C288.007 47.3145 288.971 44.6553 290.898 42.6045C292.84 40.54 295.246 39.5078 298.117 39.5078C300.988 39.5078 303.21 40.4307 304.782 42.2764C306.354 44.1221 307.141 46.6855 307.141 49.9668V51.792ZM302.547 48.4287C302.533 46.7197 302.13 45.3936 301.337 44.4502C300.544 43.4932 299.45 43.0146 298.056 43.0146C296.688 43.0146 295.526 43.5137 294.569 44.5117C293.626 45.5098 293.045 46.8154 292.826 48.4287H302.547ZM327.177 41.9893L315.836 57.2881H327.136V61H309.171V59.2158L320.758 43.7119H310.278V40H327.177V41.9893ZM350.31 59.3184C350.31 67.0293 346.434 70.8848 338.682 70.8848C335.947 70.8848 333.562 70.4268 331.524 69.5107V65.1631C333.821 66.4756 336.002 67.1318 338.066 67.1318C343.057 67.1318 345.552 64.6777 345.552 59.7695V57.4727H345.47C343.897 60.1523 341.532 61.4922 338.374 61.4922C335.817 61.4922 333.753 60.5625 332.181 58.7031C330.622 56.8301 329.843 54.3213 329.843 51.1768C329.843 47.6084 330.684 44.7715 332.365 42.666C334.047 40.5605 336.357 39.5078 339.297 39.5078C342.072 39.5078 344.13 40.6426 345.47 42.9121H345.552V40H350.31V59.3184ZM345.593 51.3818V48.6543C345.593 47.1777 345.101 45.9199 344.116 44.8809C343.146 43.8281 341.929 43.3018 340.466 43.3018C338.661 43.3018 337.246 43.9717 336.221 45.3115C335.209 46.6377 334.703 48.4971 334.703 50.8896C334.703 52.9541 335.188 54.6084 336.159 55.8525C337.144 57.083 338.442 57.6982 340.056 57.6982C341.696 57.6982 343.029 57.1104 344.055 55.9346C345.08 54.7451 345.593 53.2275 345.593 51.3818ZM372.622 61H368.008V57.7188H367.926C366.477 60.2344 364.351 61.4922 361.548 61.4922C359.483 61.4922 357.863 60.9316 356.688 59.8105C355.525 58.6895 354.944 57.2061 354.944 55.3604C354.944 51.3955 357.228 49.085 361.794 48.4287L368.028 47.5469C368.028 44.5527 366.606 43.0557 363.763 43.0557C361.261 43.0557 359.005 43.917 356.995 45.6396V41.4766C359.21 40.1641 361.767 39.5078 364.665 39.5078C369.97 39.5078 372.622 42.1191 372.622 47.3418V61ZM368.028 50.6846L363.619 51.2998C362.252 51.4775 361.22 51.8125 360.522 52.3047C359.839 52.7832 359.497 53.6309 359.497 54.8477C359.497 55.7363 359.812 56.4678 360.44 57.042C361.083 57.6025 361.938 57.8828 363.004 57.8828C364.453 57.8828 365.649 57.377 366.593 56.3652C367.55 55.3398 368.028 54.0547 368.028 52.5098V50.6846ZM393.479 60.0361C391.797 61.0068 389.808 61.4922 387.511 61.4922C384.394 61.4922 381.878 60.5215 379.964 58.5801C378.05 56.625 377.093 54.0957 377.093 50.9922C377.093 47.5332 378.118 44.7578 380.169 42.666C382.233 40.5605 384.988 39.5078 388.434 39.5078C390.348 39.5078 392.036 39.8428 393.499 40.5127V44.9424C392.036 43.8486 390.478 43.3018 388.823 43.3018C386.813 43.3018 385.166 43.9854 383.881 45.3525C382.596 46.7061 381.953 48.4834 381.953 50.6846C381.953 52.8584 382.555 54.5742 383.758 55.832C384.975 57.0898 386.602 57.7188 388.639 57.7188C390.348 57.7188 391.961 57.1104 393.479 55.8936V60.0361ZM416.878 61H412.12V49.5156C412.12 45.3594 410.732 43.2812 407.957 43.2812C406.562 43.2812 405.387 43.8828 404.43 45.0859C403.473 46.2891 402.994 47.8271 402.994 49.7002V61H398.216V29.9102H402.994V43.4863H403.076C404.662 40.834 406.932 39.5078 409.885 39.5078C414.547 39.5078 416.878 42.3584 416.878 48.0596V61ZM440.441 51.792H426.127C426.182 53.7334 426.776 55.2305 427.911 56.2832C429.06 57.3359 430.632 57.8623 432.628 57.8623C434.87 57.8623 436.928 57.1924 438.801 55.8525V59.6875C436.887 60.8906 434.357 61.4922 431.213 61.4922C428.123 61.4922 425.696 60.542 423.933 58.6416C422.183 56.7275 421.308 54.041 421.308 50.582C421.308 47.3145 422.271 44.6553 424.199 42.6045C426.141 40.54 428.547 39.5078 431.418 39.5078C434.289 39.5078 436.511 40.4307 438.083 42.2764C439.655 44.1221 440.441 46.6855 440.441 49.9668V51.792ZM435.848 48.4287C435.834 46.7197 435.431 45.3936 434.638 44.4502C433.845 43.4932 432.751 43.0146 431.356 43.0146C429.989 43.0146 428.827 43.5137 427.87 44.5117C426.927 45.5098 426.346 46.8154 426.127 48.4287H435.848ZM463.062 40L454.94 61H449.793L442.062 40H447.229L451.885 54.6836C452.24 55.7637 452.459 56.707 452.541 57.5137H452.603C452.726 56.502 452.917 55.5859 453.177 54.7656L458.058 40H463.062Z" fill="url(#paint1_linear_9_11478)"/>
<defs>
<linearGradient id="paint0_linear_9_11478" x1="73.75" y1="0" x2="73.75" y2="87.5" gradientUnits="userSpaceOnUse">
<stop stop-color="#37BBFE"/>
<stop offset="1" stop-color="#007DBB"/>
</linearGradient>
<linearGradient id="paint1_linear_9_11478" x1="303.25" y1="16" x2="303.25" y2="72" gradientUnits="userSpaceOnUse">
<stop stop-color="#37BBFE"/>
<stop offset="1" stop-color="#007DBB"/>
</linearGradient>
</defs>
</svg>
