<svg width="437" height="88" viewBox="0 0 437 88" fill="none" xmlns="http://www.w3.org/2000/svg">
<path d="M73.75 87.5C97.9125 87.5 117.5 67.9125 117.5 43.75C117.5 19.5875 97.9125 0 73.75 0C49.5875 0 30 19.5875 30 43.75C30 67.9125 49.5875 87.5 73.75 87.5Z" fill="#5181B8"/>
<path fill-rule="evenodd" clip-rule="evenodd" d="M98.7797 29.2816C99.1525 27.9395 98.7797 27 97.0399 27H91.2406C89.7493 27 89.0865 27.85 88.7137 28.7895C88.7137 28.7895 85.7726 36.5737 81.5888 41.5842C80.2219 43.0605 79.6419 43.5079 78.8963 43.5079C78.5235 43.5079 77.985 43.0605 77.985 41.7184V29.2816C77.985 27.6711 77.5707 27 76.328 27H67.2148C66.3035 27 65.7235 27.7605 65.7235 28.4316C65.7235 29.9526 67.7947 30.3105 68.0433 34.5158V43.7316C68.0433 45.7447 67.7119 46.1026 66.9663 46.1026C65.0193 46.1026 60.2142 38.3184 57.3974 29.3711C56.8174 27.7158 56.2789 27 54.7877 27H48.9883C47.3314 27 47 27.85 47 28.7895C47 30.4447 48.9469 38.6763 56.1547 49.5474C60.9598 56.9737 67.7119 61 73.8426 61C77.5293 61 77.985 60.1053 77.985 58.5842V52.9474C77.985 51.1579 78.3164 50.8 79.5177 50.8C80.3876 50.8 81.8374 51.2474 85.2756 54.8263C89.2108 59.0763 89.8736 61 92.0691 61H97.8684C99.5253 61 100.354 60.1053 99.8567 58.3605C99.3182 56.6158 97.4542 54.0658 94.9687 51.0237C93.6017 49.2789 91.572 47.4447 90.992 46.5053C90.1221 45.2974 90.3707 44.7605 90.992 43.7316C90.992 43.6868 98.0755 32.95 98.7797 29.2816Z" fill="white"/>
<path d="M166.272 52.8584H166.17C165.186 55.7979 163.258 57.2676 160.387 57.2676C158.555 57.2676 157.078 56.584 155.957 55.2168C154.836 53.8359 154.275 51.9834 154.275 49.6592C154.275 46.583 155.041 44.0264 156.572 41.9893C158.117 39.9521 160.147 38.9336 162.663 38.9336C163.62 38.9336 164.475 39.2002 165.227 39.7334C165.979 40.2529 166.464 40.8818 166.683 41.6201H166.744C166.785 41.2373 166.888 40.4512 167.052 39.2617H170.456C169.813 46.4805 169.492 50.1582 169.492 50.2949C169.492 53.002 170.196 54.3555 171.604 54.3555C172.89 54.3555 173.956 53.6035 174.804 52.0996C175.651 50.582 176.075 48.6201 176.075 46.2139C176.075 42.6592 174.927 39.7607 172.63 37.5186C170.347 35.2627 167.175 34.1348 163.114 34.1348C159.218 34.1348 155.991 35.4951 153.435 38.2158C150.878 40.9365 149.6 44.3408 149.6 48.4287C149.6 52.4619 150.83 55.7158 153.291 58.1904C155.752 60.665 159.067 61.9023 163.237 61.9023C166.519 61.9023 169.328 61.3418 171.666 60.2207V63.3789C169.273 64.3906 166.286 64.8965 162.704 64.8965C157.673 64.8965 153.619 63.3926 150.543 60.3848C147.467 57.377 145.929 53.4395 145.929 48.5723C145.929 43.5684 147.556 39.4189 150.81 36.124C154.063 32.8291 158.22 31.1816 163.278 31.1816C168.022 31.1816 171.946 32.5625 175.05 35.3242C178.167 38.0859 179.726 41.6885 179.726 46.1318C179.726 49.3857 178.878 52.0586 177.183 54.1504C175.501 56.2285 173.443 57.2676 171.01 57.2676C167.865 57.2676 166.286 55.7979 166.272 52.8584ZM163.012 41.8457C161.508 41.8457 160.291 42.584 159.361 44.0605C158.445 45.5371 157.987 47.376 157.987 49.5771C157.987 51.0537 158.295 52.2227 158.91 53.084C159.539 53.9316 160.373 54.3555 161.412 54.3555C162.916 54.3555 164.105 53.583 164.98 52.0381C165.855 50.4795 166.293 48.4219 166.293 45.8652C166.293 43.1855 165.199 41.8457 163.012 41.8457ZM188.359 35.5908C187.58 35.5908 186.91 35.3379 186.35 34.832C185.803 34.3262 185.529 33.6836 185.529 32.9043C185.529 32.125 185.803 31.4756 186.35 30.9561C186.91 30.4365 187.58 30.1768 188.359 30.1768C189.166 30.1768 189.85 30.4365 190.41 30.9561C190.971 31.4756 191.251 32.125 191.251 32.9043C191.251 33.6426 190.971 34.2783 190.41 34.8115C189.85 35.3311 189.166 35.5908 188.359 35.5908ZM190.718 61H185.96V40H190.718V61ZM198.921 61.4512C198.101 61.4512 197.403 61.1846 196.829 60.6514C196.255 60.1045 195.968 59.4551 195.968 58.7031C195.968 57.9375 196.255 57.2812 196.829 56.7344C197.403 56.1875 198.101 55.9141 198.921 55.9141C199.755 55.9141 200.459 56.1875 201.033 56.7344C201.621 57.2812 201.915 57.9375 201.915 58.7031C201.915 59.4551 201.621 60.1045 201.033 60.6514C200.459 61.1846 199.755 61.4512 198.921 61.4512ZM211.923 57.9648H211.841V61H207.083V29.9102H211.841V43.6914H211.923C213.55 40.9023 215.929 39.5078 219.06 39.5078C221.712 39.5078 223.783 40.4512 225.273 42.3379C226.777 44.2109 227.529 46.7266 227.529 49.8848C227.529 53.3984 226.688 56.2148 225.007 58.334C223.325 60.4395 221.028 61.4922 218.116 61.4922C215.382 61.4922 213.317 60.3164 211.923 57.9648ZM211.8 49.6182V52.2227C211.8 53.7539 212.285 55.0527 213.256 56.1191C214.24 57.1855 215.484 57.7188 216.988 57.7188C218.752 57.7188 220.133 57.0352 221.131 55.668C222.143 54.2871 222.648 52.3662 222.648 49.9053C222.648 47.8408 222.177 46.2275 221.233 45.0654C220.304 43.8896 219.039 43.3018 217.439 43.3018C215.744 43.3018 214.377 43.9033 213.338 45.1064C212.312 46.3096 211.8 47.8135 211.8 49.6182ZM250.17 51.792H235.855C235.91 53.7334 236.505 55.2305 237.64 56.2832C238.788 57.3359 240.36 57.8623 242.356 57.8623C244.599 57.8623 246.656 57.1924 248.529 55.8525V59.6875C246.615 60.8906 244.086 61.4922 240.941 61.4922C237.852 61.4922 235.425 60.542 233.661 58.6416C231.911 56.7275 231.036 54.041 231.036 50.582C231.036 47.3145 232 44.6553 233.928 42.6045C235.869 40.54 238.275 39.5078 241.146 39.5078C244.018 39.5078 246.239 40.4307 247.812 42.2764C249.384 44.1221 250.17 46.6855 250.17 49.9668V51.792ZM245.576 48.4287C245.562 46.7197 245.159 45.3936 244.366 44.4502C243.573 43.4932 242.479 43.0146 241.085 43.0146C239.718 43.0146 238.556 43.5137 237.599 44.5117C236.655 45.5098 236.074 46.8154 235.855 48.4287H245.576ZM270.206 41.9893L258.865 57.2881H270.165V61H252.2V59.2158L263.787 43.7119H253.308V40H270.206V41.9893ZM293.339 59.3184C293.339 67.0293 289.463 70.8848 281.711 70.8848C278.977 70.8848 276.591 70.4268 274.554 69.5107V65.1631C276.851 66.4756 279.031 67.1318 281.096 67.1318C286.086 67.1318 288.581 64.6777 288.581 59.7695V57.4727H288.499C286.927 60.1523 284.562 61.4922 281.403 61.4922C278.847 61.4922 276.782 60.5625 275.21 58.7031C273.651 56.8301 272.872 54.3213 272.872 51.1768C272.872 47.6084 273.713 44.7715 275.395 42.666C277.076 40.5605 279.387 39.5078 282.326 39.5078C285.102 39.5078 287.159 40.6426 288.499 42.9121H288.581V40H293.339V59.3184ZM288.622 51.3818V48.6543C288.622 47.1777 288.13 45.9199 287.146 44.8809C286.175 43.8281 284.958 43.3018 283.495 43.3018C281.69 43.3018 280.275 43.9717 279.25 45.3115C278.238 46.6377 277.732 48.4971 277.732 50.8896C277.732 52.9541 278.218 54.6084 279.188 55.8525C280.173 57.083 281.472 57.6982 283.085 57.6982C284.726 57.6982 286.059 57.1104 287.084 55.9346C288.109 54.7451 288.622 53.2275 288.622 51.3818ZM315.651 61H311.037V57.7188H310.955C309.506 60.2344 307.38 61.4922 304.577 61.4922C302.513 61.4922 300.893 60.9316 299.717 59.8105C298.555 58.6895 297.974 57.2061 297.974 55.3604C297.974 51.3955 300.257 49.085 304.823 48.4287L311.058 47.5469C311.058 44.5527 309.636 43.0557 306.792 43.0557C304.29 43.0557 302.034 43.917 300.024 45.6396V41.4766C302.239 40.1641 304.796 39.5078 307.694 39.5078C312.999 39.5078 315.651 42.1191 315.651 47.3418V61ZM311.058 50.6846L306.648 51.2998C305.281 51.4775 304.249 51.8125 303.552 52.3047C302.868 52.7832 302.526 53.6309 302.526 54.8477C302.526 55.7363 302.841 56.4678 303.47 57.042C304.112 57.6025 304.967 57.8828 306.033 57.8828C307.482 57.8828 308.679 57.377 309.622 56.3652C310.579 55.3398 311.058 54.0547 311.058 52.5098V50.6846ZM336.508 60.0361C334.826 61.0068 332.837 61.4922 330.54 61.4922C327.423 61.4922 324.907 60.5215 322.993 58.5801C321.079 56.625 320.122 54.0957 320.122 50.9922C320.122 47.5332 321.147 44.7578 323.198 42.666C325.263 40.5605 328.018 39.5078 331.463 39.5078C333.377 39.5078 335.065 39.8428 336.528 40.5127V44.9424C335.065 43.8486 333.507 43.3018 331.853 43.3018C329.843 43.3018 328.195 43.9854 326.91 45.3525C325.625 46.7061 324.982 48.4834 324.982 50.6846C324.982 52.8584 325.584 54.5742 326.787 55.832C328.004 57.0898 329.631 57.7188 331.668 57.7188C333.377 57.7188 334.99 57.1104 336.508 55.8936V60.0361ZM359.907 61H355.149V49.5156C355.149 45.3594 353.762 43.2812 350.986 43.2812C349.592 43.2812 348.416 43.8828 347.459 45.0859C346.502 46.2891 346.023 47.8271 346.023 49.7002V61H341.245V29.9102H346.023V43.4863H346.105C347.691 40.834 349.961 39.5078 352.914 39.5078C357.576 39.5078 359.907 42.3584 359.907 48.0596V61ZM383.471 51.792H369.156C369.211 53.7334 369.806 55.2305 370.94 56.2832C372.089 57.3359 373.661 57.8623 375.657 57.8623C377.899 57.8623 379.957 57.1924 381.83 55.8525V59.6875C379.916 60.8906 377.387 61.4922 374.242 61.4922C371.152 61.4922 368.726 60.542 366.962 58.6416C365.212 56.7275 364.337 54.041 364.337 50.582C364.337 47.3145 365.301 44.6553 367.229 42.6045C369.17 40.54 371.576 39.5078 374.447 39.5078C377.318 39.5078 379.54 40.4307 381.112 42.2764C382.685 44.1221 383.471 46.6855 383.471 49.9668V51.792ZM378.877 48.4287C378.863 46.7197 378.46 45.3936 377.667 44.4502C376.874 43.4932 375.78 43.0146 374.386 43.0146C373.019 43.0146 371.856 43.5137 370.899 44.5117C369.956 45.5098 369.375 46.8154 369.156 48.4287H378.877ZM406.091 40L397.97 61H392.822L385.091 40H390.259L394.914 54.6836C395.27 55.7637 395.488 56.707 395.57 57.5137H395.632C395.755 56.502 395.946 55.5859 396.206 54.7656L401.087 40H406.091Z" fill="#5181B8"/>
</svg>
